<svg width="440" height="440" viewBox="0 0 440 440" fill="none" xmlns="http://www.w3.org/2000/svg">
<path d="M133.982 378.012H119.982L117.001 387.049H109.549L122.803 348.159H131.16L144.413 387.049H136.908L133.981 378.012H133.982ZM131.64 370.782L126.956 356.438L122.272 370.782H131.64ZM147.662 348.159H154.742V379.877H167.517V387.049H147.663L147.662 348.159ZM190.245 348.159V355.331H178.162V363.785H189.18V370.957H178.162V387.049H171.082V348.159H190.244H190.245ZM216.38 348.159V355.389H207.864V387.049H200.784V355.389H192.268V348.159H216.38ZM216.754 367.691C216.754 363.999 217.606 360.559 219.308 357.371C220.976 354.301 223.229 351.872 226.069 350.084C228.978 348.218 232.119 347.285 235.491 347.285C238.863 347.285 242.002 348.218 244.912 350.084C247.751 351.872 250.003 354.301 251.671 357.371C253.375 360.559 254.227 363.98 254.227 367.633C254.227 371.286 253.375 374.688 251.671 377.836C250.003 380.907 247.751 383.357 244.912 385.183C242.002 387.049 238.861 387.982 235.491 387.982C232.121 387.982 228.978 387.049 226.069 385.183C223.265 383.357 221.011 380.907 219.308 377.836C217.605 374.688 216.754 371.306 216.754 367.691ZM223.94 367.633C223.94 371.482 225.217 374.708 227.772 377.311C229.972 379.566 232.544 380.693 235.491 380.693C238.897 380.693 241.754 379.256 244.06 376.379C246.083 373.892 247.095 370.976 247.095 367.633C247.095 363.747 245.816 360.501 243.262 357.897C241.062 355.642 238.472 354.515 235.491 354.515C232.048 354.515 229.174 355.953 226.867 358.829C224.915 361.316 223.94 364.251 223.94 367.633ZM257.315 367.691C257.315 363.999 258.166 360.559 259.87 357.371C261.537 354.301 263.79 351.872 266.629 350.084C269.539 348.218 272.679 347.285 276.051 347.285C279.423 347.285 282.563 348.218 285.473 350.084C288.311 351.872 290.564 354.301 292.232 357.371C293.936 360.559 294.788 363.98 294.788 367.633C294.788 371.286 293.936 374.688 292.232 377.836C290.564 380.907 288.311 383.357 285.473 385.183C282.563 387.049 279.421 387.982 276.051 387.982C272.681 387.982 269.539 387.049 266.629 385.183C263.826 383.357 261.573 380.907 259.87 377.836C258.166 374.688 257.315 371.306 257.315 367.691ZM264.501 367.633C264.501 371.482 265.779 374.708 268.334 377.311C270.533 379.566 273.106 380.693 276.052 380.693C279.458 380.693 282.315 379.256 284.621 376.379C286.645 373.892 287.656 370.976 287.656 367.633C287.656 363.747 286.377 360.501 283.823 357.897C281.623 355.642 279.033 354.515 276.052 354.515C272.61 354.515 269.735 355.953 267.429 358.829C265.477 361.316 264.501 364.251 264.501 367.633ZM299.897 387.049V348.159H305.913L323.318 373.463V348.159H330.451V387.049H324.435L306.976 361.744V387.049H299.897H299.897Z" fill="url(#paint0_linear_1543_730)"/>
<path d="M151.395 437.299H147.605L146.798 439.746H144.78L148.369 429.216H150.631L154.22 439.746H152.188L151.395 437.299ZM150.761 435.343L149.493 431.459L148.225 435.343H150.761ZM156.598 429.217H158.515V437.806H161.974V439.747H156.598V429.217ZM169.627 429.217V431.159H166.356V433.448H169.339V435.39H166.356V439.747H164.439V429.217H169.627ZM178.203 429.217V431.174H175.897V439.746H173.98V431.174H171.674V429.217H178.203ZM179.803 434.506C179.803 433.506 180.033 432.575 180.495 431.712C180.946 430.88 181.556 430.223 182.325 429.738C183.113 429.233 183.963 428.981 184.876 428.981C185.789 428.981 186.64 429.233 187.427 429.738C188.195 430.223 188.805 430.88 189.257 431.712C189.719 432.575 189.949 433.501 189.949 434.49C189.949 435.48 189.719 436.4 189.257 437.253C188.805 438.085 188.195 438.748 187.427 439.242C186.639 439.747 185.789 440 184.876 440C183.963 440 183.113 439.747 182.325 439.242C181.566 438.748 180.956 438.085 180.495 437.253C180.033 436.4 179.803 435.485 179.803 434.506ZM181.748 434.489C181.748 435.531 182.094 436.405 182.786 437.11C183.382 437.72 184.079 438.026 184.876 438.026C185.798 438.026 186.572 437.637 187.196 436.858C187.744 436.184 188.018 435.395 188.018 434.489C188.018 433.437 187.672 432.558 186.98 431.853C186.384 431.243 185.683 430.937 184.876 430.937C183.944 430.937 183.166 431.327 182.541 432.105C182.012 432.779 181.748 433.575 181.748 434.489ZM192.284 434.506C192.284 433.506 192.515 432.575 192.976 431.712C193.427 430.88 194.037 430.223 194.806 429.738C195.594 429.233 196.445 428.981 197.357 428.981C198.27 428.981 199.121 429.233 199.908 429.738C200.677 430.223 201.287 430.88 201.739 431.712C202.2 432.575 202.431 433.501 202.431 434.49C202.431 435.48 202.2 436.4 201.739 437.253C201.287 438.085 200.677 438.748 199.908 439.242C199.12 439.747 198.27 440 197.357 440C196.445 440 195.594 439.747 194.806 439.242C194.047 438.748 193.437 438.085 192.976 437.253C192.515 436.4 192.284 435.485 192.284 434.506ZM194.23 434.489C194.23 435.531 194.576 436.405 195.268 437.11C195.863 437.72 196.56 438.026 197.357 438.026C198.28 438.026 199.053 437.637 199.678 436.858C200.225 436.184 200.499 435.395 200.499 434.489C200.499 433.437 200.153 432.558 199.462 431.853C198.865 431.243 198.164 430.937 197.357 430.937C196.425 430.937 195.648 431.327 195.022 432.105C194.494 432.779 194.23 433.575 194.23 434.489ZM205.312 439.746V429.216H206.941L211.654 436.068V429.216H213.585V439.746H211.957L207.229 432.895V439.746H205.312ZM228.791 432.39C228.339 431.853 227.928 431.476 227.558 431.261C227.188 431.045 226.763 430.937 226.282 430.937C225.331 430.937 224.548 431.327 223.933 432.105C223.404 432.768 223.14 433.563 223.14 434.489C223.14 435.541 223.481 436.42 224.163 437.125C224.759 437.726 225.465 438.025 226.282 438.025C226.762 438.025 227.19 437.917 227.565 437.701C227.94 437.486 228.362 437.103 228.833 436.557L230.202 437.961C229.529 438.729 228.867 439.271 228.213 439.587C227.637 439.861 227.003 439.997 226.311 439.997C225.379 439.997 224.514 439.745 223.717 439.24C222.947 438.756 222.338 438.098 221.886 437.266C221.425 436.415 221.194 435.488 221.194 434.488C221.194 433.487 221.425 432.557 221.886 431.693C222.338 430.863 222.947 430.204 223.717 429.72C224.514 429.226 225.374 428.978 226.296 428.978C227.037 428.978 227.709 429.136 228.314 429.452C228.92 429.767 229.529 430.278 230.145 430.983L228.79 432.388L228.791 432.39ZM238.578 437.299H234.786L233.979 439.746H231.962L235.551 429.216H237.813L241.401 439.746H239.37L238.577 437.299H238.578ZM237.943 435.342L236.674 431.458L235.405 435.342H237.943ZM248.565 439.746L246.605 435.91H246.547C246.412 435.921 246.253 435.927 246.071 435.927H245.697V439.747H243.781V429.217H246.072C247.042 429.217 247.796 429.385 248.335 429.722C248.825 430.027 249.204 430.464 249.474 431.032C249.704 431.516 249.819 432.042 249.819 432.611C249.819 433.179 249.702 433.7 249.466 434.174C249.23 434.647 248.896 435.037 248.465 435.342L250.727 439.746H248.565ZM245.697 434.016H246.187C246.84 434.016 247.306 433.884 247.585 433.621C247.824 433.4 247.945 433.058 247.945 432.595C247.945 432.017 247.753 431.611 247.369 431.379C247.119 431.222 246.725 431.142 246.187 431.142H245.697V434.016ZM265.14 432.391C264.688 431.854 264.277 431.477 263.908 431.261C263.538 431.046 263.113 430.938 262.632 430.938C261.68 430.938 260.898 431.328 260.282 432.106C259.754 432.769 259.49 433.564 259.49 434.489C259.49 435.542 259.83 436.42 260.513 437.126C261.108 437.727 261.815 438.026 262.632 438.026C263.113 438.026 263.54 437.918 263.914 437.702C264.289 437.486 264.712 437.104 265.183 436.557L266.552 437.962C265.879 438.73 265.216 439.272 264.563 439.588C263.986 439.862 263.352 439.998 262.66 439.998C261.728 439.998 260.863 439.746 260.066 439.24C259.297 438.757 258.688 438.099 258.236 437.267C257.775 436.415 257.544 435.489 257.544 434.489C257.544 433.488 257.775 432.558 258.236 431.694C258.688 430.863 259.297 430.205 260.066 429.721C260.863 429.226 261.724 428.979 262.646 428.979C263.386 428.979 264.058 429.137 264.663 429.452C265.269 429.768 265.879 430.278 266.493 430.984L265.139 432.389L265.14 432.391ZM274.926 437.299H271.136L270.329 439.746H268.311L271.9 429.216H274.162L277.75 439.746H275.718L274.926 437.299H274.926ZM274.292 435.343L273.023 431.459L271.755 435.343H274.292ZM284.914 439.747L282.953 435.911H282.896C282.761 435.922 282.602 435.928 282.42 435.928H282.045V439.748H280.129V429.218H282.421C283.391 429.218 284.145 429.386 284.684 429.723C285.174 430.028 285.553 430.465 285.822 431.033C286.053 431.517 286.168 432.043 286.168 432.612C286.168 433.18 286.051 433.701 285.815 434.174C285.579 434.648 285.245 435.038 284.813 435.343L287.075 439.747H284.914ZM282.045 434.017H282.536C283.189 434.017 283.655 433.885 283.934 433.622C284.173 433.401 284.294 433.059 284.294 432.596C284.294 432.017 284.102 431.612 283.717 431.38C283.468 431.223 283.073 431.143 282.536 431.143H282.045V434.017ZM295.09 429.218V431.16H291.501V433.449H294.686V435.391H291.501V437.791H295.219V439.748H289.584V429.218H295.09Z" fill="url(#paint1_linear_1543_730)"/>
<path d="M174.904 401.925L176.653 407.819H182.312L177.734 411.463L179.482 417.358L174.904 413.715L170.326 417.358L172.075 411.463L167.497 407.819H173.156L174.904 401.925Z" fill="url(#paint2_linear_1543_730)"/>
<path d="M197.452 401.926L199.2 407.82H204.859L200.281 411.463L202.03 417.359L197.452 413.715L192.874 417.359L194.623 411.463L190.045 407.82H195.704L197.452 401.926Z" fill="url(#paint3_linear_1543_730)"/>
<path d="M220 401.926L221.749 407.82H227.407L222.829 411.463L224.577 417.359L220 413.715L215.422 417.359L217.171 411.463L212.593 407.82H218.251L220 401.926Z" fill="url(#paint4_linear_1543_730)"/>
<path d="M242.548 401.926L244.296 407.82H249.954L245.377 411.463L247.125 417.359L242.548 413.715L237.97 417.359L239.718 411.463L235.14 407.82H240.799L242.548 401.926Z" fill="url(#paint5_linear_1543_730)"/>
<path d="M265.095 401.926L266.844 407.82H272.502L267.925 411.463L269.673 417.359L265.095 413.715L260.517 417.359L262.266 411.463L257.688 407.82H263.347L265.095 401.926Z" fill="url(#paint6_linear_1543_730)"/>
<path d="M152.936 408.809H102.805V410.402H152.936V408.809Z" fill="url(#paint7_linear_1543_730)"/>
<path d="M337.194 408.809H287.063V410.402H337.194V408.809Z" fill="url(#paint8_linear_1543_730)"/>
<path d="M287.063 401.925V406.149H332.845L287.063 401.925Z" fill="url(#paint9_linear_1543_730)"/>
<path d="M152.936 401.925V406.149H107.154L152.936 401.925Z" fill="url(#paint10_linear_1543_730)"/>
<path d="M287.063 416.978V412.754H332.845L287.063 416.978Z" fill="url(#paint11_linear_1543_730)"/>
<path d="M152.936 416.978V412.754H107.154L152.936 416.978Z" fill="url(#paint12_linear_1543_730)"/>
<path d="M220 338.452L271.012 290.133L271.112 290.038V222.629L220.247 174.444L220 174.211L219.754 174.444L168.888 222.629V290.038L168.988 290.133L220 338.452ZM220 175.135L270.418 222.896V289.769L220 337.527L169.582 289.769V222.896L220 175.135Z" fill="url(#paint13_linear_1543_730)"/>
<path d="M423.347 152.972L356.339 190.216C348.692 194.467 343.546 202.684 342.678 212.028L340.188 238.829L384.921 219.479C404.263 211.112 419.808 194.72 428.174 173.866L440 144.39L425.473 151.862L423.348 152.973L423.347 152.972Z" fill="url(#paint14_linear_1543_730)"/>
<path d="M16.6527 152.972L83.661 190.216C91.3073 194.467 96.4542 202.684 97.322 212.028L99.8116 238.829L55.0784 219.479C35.7366 211.112 20.1922 194.72 11.826 173.866L0 144.39L14.5265 151.862L16.6519 152.973L16.6527 152.972Z" fill="url(#paint15_linear_1543_730)"/>
<path d="M338.275 272.951L338.256 273.265L380.404 258.494C387.155 256.128 392.758 250.895 395.958 243.967L407.607 218.749L358.619 241.634C347.006 247.059 339.148 259.155 338.275 272.951Z" fill="url(#paint16_linear_1543_730)"/>
<path d="M101.725 272.951L101.744 273.265L59.5963 258.494C52.8451 256.128 47.2423 250.895 44.042 243.967L32.3935 218.749L81.3814 241.634C92.9942 247.059 100.852 259.155 101.725 272.951Z" fill="url(#paint17_linear_1543_730)"/>
<path d="M347.163 183.128L386.598 160.882C407.17 149.276 423.023 129.646 431.029 105.865L439.999 79.2194L312.72 176.963L306.272 256.402C305.594 264.745 302.339 272.548 297.095 278.561L303.395 171.719C303.395 171.719 372.424 104.971 395.687 85.5824C418.95 66.1951 427.041 0 427.041 0L256.037 174.961L279.121 200.246V296.076L279.109 296.212L247.686 326.738C257.061 326.738 266.22 323.647 273.97 317.867L316.98 285.791C323.51 280.921 327.721 273.117 328.467 264.503L333.619 205.049C334.43 195.692 339.533 187.43 347.162 183.127L347.163 183.128Z" fill="url(#paint18_linear_1543_730)"/>
<path d="M92.8378 183.128L53.4025 160.882C32.8303 149.276 16.9771 129.646 8.97121 105.865L0.0012207 79.2194L127.28 176.963L133.729 256.402C134.406 264.745 137.662 272.548 142.905 278.561L136.605 171.719C136.605 171.719 67.5762 104.971 44.3134 85.5824C21.0505 66.1951 12.9597 0 12.9597 0L183.963 174.961L160.879 200.246V296.076L160.891 296.212L192.315 326.738C182.939 326.738 173.781 323.647 166.031 317.867L123.021 285.791C116.491 280.921 112.28 273.117 111.533 264.503L106.382 205.049C105.571 195.692 100.467 187.43 92.8393 183.127L92.8378 183.128Z" fill="url(#paint19_linear_1543_730)"/>
<path d="M220 335.172L269.013 288.746V223.921L220 177.49L170.986 223.921V288.746L220 335.172ZM220 195.198L256.843 230.099V282.567L220 317.465L183.157 282.567V230.099L220 195.198Z" fill="url(#paint20_linear_1543_730)"/>
<path d="M237.085 227.612V239.264H217.452V253.002H235.354V264.653H217.452V290.802H205.949V227.612H237.085H237.085Z" fill="url(#paint21_linear_1543_730)"/>
<defs>
<linearGradient id="paint0_linear_1543_730" x1="109.55" y1="367.634" x2="330.45" y2="367.634" gradientUnits="userSpaceOnUse">
<stop stop-color="#E5C67D"/>
<stop offset="1" stop-color="#A78C50"/>
</linearGradient>
<linearGradient id="paint1_linear_1543_730" x1="144.78" y1="434.489" x2="295.219" y2="434.489" gradientUnits="userSpaceOnUse">
<stop stop-color="#E5C67D"/>
<stop offset="1" stop-color="#A78C50"/>
</linearGradient>
<linearGradient id="paint2_linear_1543_730" x1="167.497" y1="409.642" x2="182.312" y2="409.642" gradientUnits="userSpaceOnUse">
<stop stop-color="#E5C67D"/>
<stop offset="1" stop-color="#A78C50"/>
</linearGradient>
<linearGradient id="paint3_linear_1543_730" x1="190.045" y1="409.642" x2="204.859" y2="409.642" gradientUnits="userSpaceOnUse">
<stop stop-color="#E5C67D"/>
<stop offset="1" stop-color="#A78C50"/>
</linearGradient>
<linearGradient id="paint4_linear_1543_730" x1="212.593" y1="409.642" x2="227.407" y2="409.642" gradientUnits="userSpaceOnUse">
<stop stop-color="#E5C67D"/>
<stop offset="1" stop-color="#A78C50"/>
</linearGradient>
<linearGradient id="paint5_linear_1543_730" x1="235.14" y1="409.642" x2="249.954" y2="409.642" gradientUnits="userSpaceOnUse">
<stop stop-color="#E5C67D"/>
<stop offset="1" stop-color="#A78C50"/>
</linearGradient>
<linearGradient id="paint6_linear_1543_730" x1="257.688" y1="409.642" x2="272.502" y2="409.642" gradientUnits="userSpaceOnUse">
<stop stop-color="#E5C67D"/>
<stop offset="1" stop-color="#A78C50"/>
</linearGradient>
<linearGradient id="paint7_linear_1543_730" x1="102.806" y1="409.605" x2="152.936" y2="409.605" gradientUnits="userSpaceOnUse">
<stop stop-color="#E5C67D"/>
<stop offset="1" stop-color="#A78C50"/>
</linearGradient>
<linearGradient id="paint8_linear_1543_730" x1="287.063" y1="409.605" x2="337.194" y2="409.605" gradientUnits="userSpaceOnUse">
<stop stop-color="#E5C67D"/>
<stop offset="1" stop-color="#A78C50"/>
</linearGradient>
<linearGradient id="paint9_linear_1543_730" x1="287.063" y1="404.037" x2="332.845" y2="404.037" gradientUnits="userSpaceOnUse">
<stop stop-color="#E5C67D"/>
<stop offset="1" stop-color="#A78C50"/>
</linearGradient>
<linearGradient id="paint10_linear_1543_730" x1="107.154" y1="404.037" x2="152.936" y2="404.037" gradientUnits="userSpaceOnUse">
<stop stop-color="#E5C67D"/>
<stop offset="1" stop-color="#A78C50"/>
</linearGradient>
<linearGradient id="paint11_linear_1543_730" x1="287.063" y1="414.866" x2="332.845" y2="414.866" gradientUnits="userSpaceOnUse">
<stop stop-color="#E5C67D"/>
<stop offset="1" stop-color="#A78C50"/>
</linearGradient>
<linearGradient id="paint12_linear_1543_730" x1="107.154" y1="414.866" x2="152.936" y2="414.866" gradientUnits="userSpaceOnUse">
<stop stop-color="#E5C67D"/>
<stop offset="1" stop-color="#A78C50"/>
</linearGradient>
<linearGradient id="paint13_linear_1543_730" x1="168.889" y1="256.333" x2="271.112" y2="256.333" gradientUnits="userSpaceOnUse">
<stop stop-color="#E5C67D"/>
<stop offset="1" stop-color="#A78C50"/>
</linearGradient>
<linearGradient id="paint14_linear_1543_730" x1="340.189" y1="191.61" x2="439.999" y2="191.61" gradientUnits="userSpaceOnUse">
<stop stop-color="#E5C67D"/>
<stop offset="1" stop-color="#A78C50"/>
</linearGradient>
<linearGradient id="paint15_linear_1543_730" x1="0.000342747" y1="191.61" x2="99.8112" y2="191.61" gradientUnits="userSpaceOnUse">
<stop stop-color="#E5C67D"/>
<stop offset="1" stop-color="#A78C50"/>
</linearGradient>
<linearGradient id="paint16_linear_1543_730" x1="338.256" y1="246.008" x2="407.606" y2="246.008" gradientUnits="userSpaceOnUse">
<stop stop-color="#E5C67D"/>
<stop offset="1" stop-color="#A78C50"/>
</linearGradient>
<linearGradient id="paint17_linear_1543_730" x1="32.3937" y1="246.008" x2="101.744" y2="246.008" gradientUnits="userSpaceOnUse">
<stop stop-color="#E5C67D"/>
<stop offset="1" stop-color="#A78C50"/>
</linearGradient>
<linearGradient id="paint18_linear_1543_730" x1="247.686" y1="163.372" x2="439.999" y2="163.372" gradientUnits="userSpaceOnUse">
<stop stop-color="#E5C67D"/>
<stop offset="1" stop-color="#A78C50"/>
</linearGradient>
<linearGradient id="paint19_linear_1543_730" x1="0.0018811" y1="163.372" x2="192.314" y2="163.372" gradientUnits="userSpaceOnUse">
<stop stop-color="#E5C67D"/>
<stop offset="1" stop-color="#A78C50"/>
</linearGradient>
<linearGradient id="paint20_linear_1543_730" x1="170.986" y1="256.333" x2="269.013" y2="256.333" gradientUnits="userSpaceOnUse">
<stop stop-color="#E5C67D"/>
<stop offset="1" stop-color="#A78C50"/>
</linearGradient>
<linearGradient id="paint21_linear_1543_730" x1="205.949" y1="259.207" x2="237.085" y2="259.207" gradientUnits="userSpaceOnUse">
<stop stop-color="#E5C67D"/>
<stop offset="1" stop-color="#A78C50"/>
</linearGradient>
</defs>
</svg>
