<svg width="175" height="160" viewBox="0 0 175 160" fill="none" xmlns="http://www.w3.org/2000/svg">
<path d="M53.1498 137.459H47.5964L46.4138 140.745H43.4576L48.7152 126.603H52.0304L57.288 140.745H54.3108L53.1495 137.459H53.1498ZM52.2209 134.83L50.3627 129.614L48.5046 134.83H52.2209ZM58.5769 126.603H61.3853V138.137H66.4531V140.745H58.5772L58.5769 126.603ZM75.4691 126.603V129.211H70.6758V132.286H75.0467V134.893H70.6758V140.745H67.8674V126.603H75.4688H75.4691ZM85.8369 126.603V129.232H82.4585V140.745H79.6501V129.232H76.2717V126.603H85.8369ZM85.985 133.706C85.985 132.363 86.3229 131.112 86.9985 129.953C87.6599 128.837 88.5536 127.953 89.6803 127.303C90.8343 126.625 92.0804 126.286 93.4179 126.286C94.7555 126.286 96.001 126.625 97.1553 127.303C98.2814 127.953 99.1748 128.837 99.8365 129.953C100.512 131.112 100.85 132.356 100.85 133.685C100.85 135.013 100.512 136.25 99.8365 137.395C99.1748 138.512 98.2814 139.403 97.1553 140.067C96.001 140.745 94.7549 141.084 93.4179 141.084C92.081 141.084 90.8343 140.745 89.6803 140.067C88.5681 139.403 87.674 138.512 86.9985 137.395C86.3226 136.25 85.985 135.021 85.985 133.706ZM88.8356 133.685C88.8356 135.084 89.3423 136.258 90.3558 137.204C91.2285 138.024 92.2489 138.434 93.4179 138.434C94.7691 138.434 95.9023 137.911 96.8174 136.865C97.6196 135.961 98.0211 134.901 98.0211 133.685C98.0211 132.272 97.5137 131.091 96.5005 130.144C95.6279 129.325 94.6005 128.915 93.4179 128.915C92.0521 128.915 90.9119 129.437 89.9968 130.483C89.2226 131.388 88.8356 132.455 88.8356 133.685ZM102.075 133.706C102.075 132.363 102.413 131.112 103.089 129.953C103.75 128.837 104.644 127.953 105.77 127.303C106.925 126.625 108.17 126.286 109.508 126.286C110.846 126.286 112.091 126.625 113.245 127.303C114.371 127.953 115.265 128.837 115.927 129.953C116.603 131.112 116.941 132.356 116.941 133.685C116.941 135.013 116.603 136.25 115.927 137.395C115.265 138.512 114.371 139.403 113.245 140.067C112.091 140.745 110.845 141.084 109.508 141.084C108.171 141.084 106.925 140.745 105.77 140.067C104.658 139.403 103.764 138.512 103.089 137.395C102.413 136.25 102.075 135.021 102.075 133.706ZM104.926 133.685C104.926 135.084 105.433 136.258 106.446 137.204C107.319 138.024 108.34 138.434 109.508 138.434C110.859 138.434 111.993 137.911 112.908 136.865C113.71 135.961 114.111 134.901 114.111 133.685C114.111 132.272 113.604 131.091 112.591 130.144C111.718 129.325 110.691 128.915 109.508 128.915C108.143 128.915 107.003 129.437 106.087 130.483C105.313 131.388 104.926 132.455 104.926 133.685ZM118.968 140.745V126.603H121.354L128.258 135.805V126.603H131.088V140.745H128.702L121.776 131.543V140.745H118.967H118.968Z" fill="#171616"/>
<path d="M60.0577 159.018H58.554L58.2338 159.908H57.4333L58.857 156.079H59.7546L61.1783 159.908H60.3721L60.0577 159.018ZM59.8061 158.306L59.303 156.894L58.7998 158.306H59.8061ZM62.1216 156.079H62.8821V159.202H64.2542V159.908H62.1216V156.079ZM67.2902 156.079V156.785H65.9923V157.618H67.1758V158.324H65.9923V159.908H65.2319V156.079H67.2902ZM70.6921 156.079V156.791H69.7773V159.908H69.0169V156.791H68.1021V156.079H70.6921ZM71.3267 158.002C71.3267 157.638 71.4182 157.3 71.6011 156.986C71.7802 156.684 72.0221 156.445 72.3272 156.269C72.6399 156.085 72.9772 155.993 73.3392 155.993C73.7012 155.993 74.0389 156.085 74.3512 156.269C74.656 156.445 74.898 156.684 75.0773 156.986C75.2603 157.3 75.3518 157.637 75.3518 157.996C75.3518 158.356 75.2603 158.691 75.0773 159.001C74.898 159.304 74.656 159.545 74.3512 159.724C74.0386 159.908 73.7012 160 73.3392 160C72.9772 160 72.6399 159.908 72.3272 159.724C72.026 159.545 71.7841 159.304 71.6011 159.001C71.4182 158.691 71.3267 158.358 71.3267 158.002ZM72.0985 157.996C72.0985 158.375 72.2358 158.693 72.5102 158.949C72.7464 159.171 73.023 159.282 73.3392 159.282C73.7051 159.282 74.0121 159.141 74.2597 158.858C74.477 158.613 74.5856 158.326 74.5856 157.996C74.5856 157.613 74.4484 157.294 74.174 157.037C73.9375 156.816 73.6594 156.705 73.3392 156.705C72.9694 156.705 72.661 156.846 72.413 157.129C72.2033 157.374 72.0985 157.664 72.0985 157.996ZM76.278 158.002C76.278 157.638 76.3695 157.3 76.5524 156.986C76.7315 156.684 76.9734 156.445 77.2785 156.269C77.5912 156.085 77.9285 155.993 78.2905 155.993C78.6525 155.993 78.9902 156.085 79.3025 156.269C79.6073 156.445 79.8493 156.684 80.0286 156.986C80.2116 157.3 80.303 157.637 80.303 157.996C80.303 158.356 80.2116 158.691 80.0286 159.001C79.8493 159.304 79.6073 159.545 79.3025 159.724C78.9899 159.908 78.6525 160 78.2905 160C77.9285 160 77.5912 159.908 77.2785 159.724C76.9773 159.545 76.7354 159.304 76.5524 159.001C76.3695 158.691 76.278 158.358 76.278 158.002ZM77.0498 157.996C77.0498 158.375 77.1871 158.693 77.4615 158.949C77.6977 159.171 77.9743 159.282 78.2905 159.282C78.6564 159.282 78.9634 159.141 79.211 158.858C79.4283 158.613 79.5369 158.326 79.5369 157.996C79.5369 157.613 79.3997 157.294 79.1253 157.037C78.8887 156.816 78.6107 156.705 78.2905 156.705C77.9207 156.705 77.6123 156.846 77.3643 157.129C77.1546 157.374 77.0498 157.664 77.0498 157.996ZM81.4462 159.908V156.079H82.0923L83.9619 158.57V156.079H84.728V159.908H84.082L82.2067 157.416V159.908H81.4462ZM90.7599 157.233C90.5806 157.037 90.4178 156.9 90.2709 156.822C90.1241 156.744 89.9556 156.705 89.7648 156.705C89.3874 156.705 89.0769 156.846 88.8328 157.129C88.6231 157.37 88.5184 157.659 88.5184 157.996C88.5184 158.379 88.6535 158.698 88.9243 158.955C89.1605 159.173 89.4407 159.282 89.7648 159.282C89.9553 159.282 90.125 159.243 90.2736 159.164C90.4223 159.086 90.5899 158.947 90.7768 158.748L91.3199 159.259C91.053 159.538 90.79 159.735 90.5309 159.85C90.3022 159.95 90.0507 159.999 89.7762 159.999C89.4064 159.999 89.0633 159.907 88.7471 159.724C88.442 159.548 88.2 159.308 88.021 159.006C87.838 158.696 87.7465 158.359 87.7465 157.996C87.7465 157.632 87.838 157.293 88.021 156.979C88.2 156.677 88.442 156.438 88.7471 156.262C89.0633 156.082 89.4046 155.992 89.7705 155.992C90.0642 155.992 90.3308 156.049 90.5709 156.164C90.8111 156.279 91.053 156.465 91.2974 156.721L90.7596 157.232L90.7599 157.233ZM94.6424 159.018H93.1384L92.8182 159.908H92.0181L93.4417 156.078H94.339L95.7624 159.908H94.9565L94.642 159.018H94.6424ZM94.3908 158.306L93.887 156.894L93.3839 158.306H94.3908ZM98.6042 159.908L97.8267 158.513H97.8038C97.7502 158.517 97.6873 158.519 97.6151 158.519H97.4665V159.908H96.7063V156.079H97.6154C98.0003 156.079 98.2994 156.14 98.5131 156.262C98.7074 156.374 98.8579 156.533 98.9647 156.739C99.0562 156.915 99.1019 157.106 99.1019 157.313C99.1019 157.52 99.0553 157.709 98.9617 157.881C98.8681 158.054 98.7357 158.195 98.5645 158.306L99.4618 159.908H98.6042ZM97.4665 157.824H97.6609C97.9199 157.824 98.105 157.776 98.2154 157.68C98.3105 157.6 98.3584 157.476 98.3584 157.307C98.3584 157.097 98.2822 156.95 98.1297 156.865C98.0307 156.808 97.8742 156.779 97.6609 156.779H97.4665V157.824ZM105.18 157.233C105 157.038 104.837 156.901 104.691 156.822C104.544 156.744 104.375 156.705 104.184 156.705C103.807 156.705 103.497 156.847 103.252 157.129C103.043 157.37 102.938 157.66 102.938 157.996C102.938 158.379 103.073 158.698 103.344 158.955C103.58 159.173 103.861 159.282 104.184 159.282C104.375 159.282 104.545 159.243 104.693 159.164C104.842 159.086 105.01 158.947 105.196 158.748L105.74 159.259C105.473 159.538 105.21 159.735 104.951 159.85C104.722 159.95 104.47 159.999 104.196 159.999C103.826 159.999 103.483 159.908 103.167 159.724C102.862 159.548 102.62 159.309 102.441 159.006C102.258 158.697 102.166 158.36 102.166 157.996C102.166 157.632 102.258 157.294 102.441 156.98C102.62 156.678 102.862 156.438 103.167 156.262C103.483 156.082 103.824 155.992 104.19 155.992C104.484 155.992 104.75 156.05 104.99 156.165C105.231 156.279 105.473 156.465 105.716 156.721L105.179 157.232L105.18 157.233ZM109.062 159.018H107.558L107.238 159.908H106.437L107.861 156.079H108.758L110.182 159.908H109.376L109.061 159.018H109.062ZM108.81 158.306L108.307 156.894L107.804 158.306H108.81ZM113.024 159.908L112.246 158.513H112.223C112.17 158.517 112.107 158.519 112.034 158.519H111.886V159.908H111.126V156.079H112.035C112.42 156.079 112.719 156.14 112.932 156.263C113.127 156.374 113.277 156.533 113.384 156.739C113.476 156.915 113.521 157.107 113.521 157.313C113.521 157.52 113.475 157.709 113.381 157.882C113.287 158.054 113.155 158.196 112.984 158.306L113.881 159.908H113.024ZM111.886 157.824H112.08C112.339 157.824 112.524 157.777 112.635 157.681C112.73 157.6 112.778 157.476 112.778 157.308C112.778 157.097 112.702 156.95 112.549 156.866C112.45 156.808 112.294 156.779 112.08 156.779H111.886V157.824ZM117.06 156.079V156.785H115.637V157.618H116.9V158.324H115.637V159.197H117.112V159.908H114.876V156.079H117.06Z" fill="#171616"/>
<path d="M69.3837 146.154L70.0773 148.298H72.3221L70.5061 149.623L71.1997 151.767L69.3837 150.442L67.5676 151.767L68.2612 149.623L66.4452 148.298H68.69L69.3837 146.154Z" fill="#171616"/>
<path d="M78.3281 146.154L79.0217 148.298H81.2666L79.4505 149.623L80.1441 151.767L78.3281 150.442L76.5121 151.767L77.2057 149.623L75.3896 148.298H77.6345L78.3281 146.154Z" fill="#171616"/>
<path d="M87.2726 146.154L87.9665 148.298H90.211L88.395 149.623L89.0886 151.767L87.2726 150.442L85.4568 151.767L86.1504 149.623L84.3344 148.298H86.579L87.2726 146.154Z" fill="#171616"/>
<path d="M96.2173 146.154L96.9109 148.298H99.1555L97.3397 149.623L98.0334 151.767L96.2173 150.442L94.4013 151.767L95.0949 149.623L93.2789 148.298H95.5237L96.2173 146.154Z" fill="#171616"/>
<path d="M105.162 146.154L105.855 148.298H108.1L106.284 149.623L106.978 151.767L105.162 150.442L103.346 151.767L104.039 149.623L102.223 148.298H104.468L105.162 146.154Z" fill="#171616"/>
<path d="M60.6691 148.658H40.7824V149.237H60.6691V148.658Z" fill="#171616"/>
<path d="M133.763 148.658H113.876V149.237H133.763V148.658Z" fill="#171616"/>
<path d="M113.876 146.154V147.691H132.038L113.876 146.154Z" fill="#171616"/>
<path d="M60.6691 146.154V147.691H42.5076L60.6691 146.154Z" fill="#171616"/>
<path d="M113.876 151.628V150.092H132.038L113.876 151.628Z" fill="#171616"/>
<path d="M60.6691 151.628V150.092H42.5076L60.6691 151.628Z" fill="#171616"/>
<path d="M87.2729 123.073L107.509 105.503L107.549 105.468V80.9559L87.3707 63.4343L87.2729 63.3494L87.1751 63.4343L66.9971 80.9559V105.468L67.0368 105.503L87.2729 123.073ZM87.2729 63.6857L107.273 81.0532V105.371L87.2729 122.737L67.2721 105.371V81.0532L87.2729 63.6857Z" fill="#171616"/>
<path d="M167.939 55.6263L141.358 69.1697C138.324 70.7151 136.283 73.7033 135.938 77.101L134.951 86.8469L152.696 79.8106C160.369 76.768 166.535 70.8073 169.854 63.2241L174.545 52.5055L168.783 55.2227L167.94 55.6266L167.939 55.6263Z" fill="#171616"/>
<path d="M6.60603 55.6263L33.1878 69.1697C36.2211 70.7151 38.2628 73.7033 38.6071 77.101L39.5947 86.8469L21.8493 79.8106C14.1765 76.768 8.01011 70.8073 4.6913 63.2241L0 52.5055L5.76256 55.2227L6.60573 55.6266L6.60603 55.6263Z" fill="#171616"/>
<path d="M134.192 99.2551L134.184 99.3693L150.904 93.9981C153.582 93.1376 155.805 91.2346 157.074 88.7154L161.695 79.5453L142.262 87.867C137.655 89.8397 134.538 94.2383 134.192 99.2551Z" fill="#171616"/>
<path d="M40.3536 99.2551L40.3614 99.3693L23.6415 93.9981C20.9634 93.1376 18.7408 91.2346 17.4712 88.7154L12.8503 79.5453L32.2836 87.867C36.8903 89.8397 40.0075 94.2383 40.3536 99.2551Z" fill="#171616"/>
<path d="M137.717 66.592L153.361 58.5024C161.522 54.2824 167.811 47.1439 170.987 38.4962L174.545 28.8071L124.054 64.3501L121.496 93.2372C121.228 96.2708 119.936 99.1082 117.856 101.295L120.355 62.4433C120.355 62.4433 147.739 38.1711 156.967 31.1209C166.195 24.0709 169.405 0 169.405 0L101.568 63.6223L110.726 72.8168V107.664L110.721 107.714L98.2555 118.814C101.975 118.814 105.608 117.69 108.682 115.588L125.744 103.924C128.335 102.153 130.005 99.3155 130.301 96.1828L132.345 74.5632C132.666 71.1608 134.691 68.1565 137.717 66.5917L137.717 66.592Z" fill="#171616"/>
<path d="M36.8285 66.592L21.1848 58.5024C13.0239 54.2824 6.73502 47.1439 3.55914 38.4962L0.000793457 28.8071L50.4917 64.3501L53.0498 93.2372C53.3185 96.2708 54.61 99.1082 56.69 101.295L54.1908 62.4433C54.1908 62.4433 26.8074 38.1711 17.5792 31.1209C8.35094 24.0709 5.14136 0 5.14136 0L72.9774 63.6223L63.8202 72.8168V107.664L63.825 107.714L76.2905 118.814C72.5712 118.814 68.9382 117.69 65.8637 115.588L48.802 103.924C46.2114 102.153 44.541 99.3155 44.2449 96.1828L42.2014 74.5632C41.8797 71.1608 39.8552 68.1565 36.8291 66.5917L36.8285 66.592Z" fill="#171616"/>
<path d="M87.2726 121.881L106.716 104.999V81.4258L87.2726 64.542L67.8292 81.4258V104.999L87.2726 121.881ZM87.2726 70.981L101.888 83.6723V102.751L87.2726 115.442L72.6574 102.751V83.6723L87.2726 70.981Z" fill="#171616"/>
<path d="M94.0504 82.7679V87.0049H86.2618V92.0006H93.3637V96.2375H86.2618V105.746H81.6987V82.7679H94.0501H94.0504Z" fill="#171616"/>
</svg>
